:FULLY-SPECIFIED
:FORCE-ALL-JOINTS-BE-3DOF
:DEGREES
2956
root -5.89556 13.2637 -28.9236 160.419 -69.4361 -157.113
lfemur -67.4776 41.3789 -6.96426
ltibia 75.244 -0 0
lfoot -7.65175 -1.98707 0.0271608
ltoes -38.2145 0 0
rfemur -34.2418 -16.8607 23.4057
rtibia 89.5175 -0 0
rfoot -39.8466 -30.0445 0.0143397
rtoes -13.5942 0 0
lowerback 16.2109 5.20949 1.35594
upperback -4.30191 7.48467 1.41675
thorax -13.9676 3.41245 -1.26883
lowerneck -2.7439 8.78147 1.20153
upperneck 7.69563 11.4977 1.80563
head 2.96124 5.79149 0.833581
lclavicle 7.95139e-16 -2.50469e-14 0
lhumerus 6.39946 13.4888 82.8918
lradius 90.2323 -0 0
lwrist -17.2009 0 0
lhand -38.166 28.8968 0.0243324
lfingers 7.12502 -0 0
lthumb -11.1986 58.5542 0.0259038
rclavicle 7.95139e-16 -2.50469e-14 0
rhumerus -50.9789 50.4883 -105.662
rradius 112.282 -0 0
rwrist -80.6636 0 0
rhand 5.80114 -25.7652 0.0785337
rfingers 7.12502 -0 0
rthumb 31.1231 -53.018 0.109058
2957
root -5.84181 13.3119 -28.9902 159.429 -70.378 -155.992
lfemur -67.3459 40.4622 -7.12855
ltibia 74.1776 -0 0
lfoot -7.58235 -1.59523 0.0352663
ltoes -37.9511 0 0
rfemur -34.2863 -16.4365 23.6954
rtibia 89.0309 -0 0
rfoot -39.5205 -30.0004 0.0186182
rtoes -13.5162 0 0
lowerback 16.1964 5.16861 1.34395
upperback -4.24052 7.42155 1.39523
thorax -13.8873 3.3853 -1.26554
lowerneck -2.67094 8.49495 1.00608
upperneck 7.4433 11.1222 1.8627
head 2.86933 5.60431 0.879009
lclavicle 7.95139e-16 -2.50469e-14 0
lhumerus 6.65269 13.0789 82.8774
lradius 90.0175 -0 0
lwrist -16.7403 0 0
lhand -37.8697 28.9791 0.031592
lfingers 7.12502 -0 0
lthumb -10.9126 58.6451 0.0336322
rclavicle 7.95139e-16 -2.50469e-14 0
rhumerus -48.3908 50.1431 -103.756
rradius 112.065 -0 0
rwrist -80.1207 0 0
rhand 5.25072 -25.9075 0.101985
rfingers 7.12502 -0 0
rthumb 30.5952 -53.224 0.141624
2958
root -5.78805 13.36 -29.0568 158.334 -71.3128 -154.766
lfemur -67.2125 39.5457 -7.29337
ltibia 73.1112 -0 0
lfoot -7.5129 -1.20339 0.0428969
ltoes -37.6877 0 0
rfemur -34.3285 -16.0122 23.9841
rtibia 88.5444 -0 0
rfoot -39.1945 -29.9563 0.0226458
rtoes -13.4381 0 0
lowerback 16.182 5.12772 1.33197
upperback -4.17911 7.35846 1.37365
thorax -13.8071 3.35813 -1.26229
lowerneck -2.59703 8.20867 0.810408
upperneck 7.1909 10.7468 1.92137
head 2.77731 5.41721 0.924724
lclavicle 7.95139e-16 -2.50469e-14 0
lhumerus 6.90562 12.669 82.8611
lradius 89.8028 -0 0
lwrist -16.2797 0 0
lhand -37.5734 29.0615 0.0384257
lfingers 7.12502 -0 0
lthumb -10.6265 58.7359 0.040907
rclavicle 7.95139e-16 -2.50469e-14 0
rhumerus -45.8417 49.7437 -101.891
rradius 111.848 -0 0
rwrist -79.5777 0 0
rhand 4.70025 -26.0499 0.124068
rfingers 7.12502 -0 0
rthumb 30.0673 -53.4302 0.17229
2959
root -5.7343 13.4082 -29.1234 157.118 -72.2393 -153.42
lfemur -67.0775 38.6296 -7.45879
ltibia 72.0448 -0 0
lfoot -7.44341 -0.81153 0.0500524
ltoes -37.4244 0 0
rfemur -34.3684 -15.5876 24.2719
rtibia 88.0579 -0 0
rfoot -38.8684 -29.9122 0.0264223
rtoes -13.3601 0 0
lowerback 16.1675 5.08683 1.32
upperback -4.11768 7.29538 1.35201
thorax -13.7268 3.33097 -1.25907
lowerneck -2.52219 7.92265 0.614499
upperneck 6.93842 10.3718 1.98165
head 2.68516 5.23017 0.970727
lclavicle 7.95139e-16 -2.50469e-14 0
lhumerus 7.15827 12.2592 82.843
lradius 89.588 -0 0
lwrist -15.8191 0 0
lhand -37.277 29.144 0.0448332
lfingers 7.12502 -0 0
lthumb -10.3405 58.8268 0.0477281
rclavicle 7.95139e-16 -2.50469e-14 0
rhumerus -43.336 49.2917 -100.071
rradius 111.631 -0 0
rwrist -79.0348 0 0
rhand 4.14972 -26.1926 0.144782
rfingers 7.12502 -0 0
rthumb 29.5393 -53.6368 0.201055
2960
root -5.68054 13.4564 -29.19 155.763 -73.1561 -151.935
lfemur -66.9409 37.7138 -7.62488
ltibia 70.9785 -0 0
lfoot -7.37386 -0.419665 0.0567325
ltoes -37.161 0 0
rfemur -34.406 -15.1629 24.5588
rtibia 87.5713 -0 0
rfoot -38.5424 -29.868 0.0299475
rtoes -13.282 0 0
lowerback 16.1531 5.04594 1.30805
upperback -4.05625 7.23234 1.3303
thorax -13.6466 3.3038 -1.2559
lowerneck -2.44642 7.63688 0.418348
upperneck 6.68584 9.99696 2.04354
head 2.59289 5.04321 1.01702
lclavicle 7.95139e-16 -2.50469e-14 0
lhumerus 7.41066 11.8495 82.823
lradius 89.3733 -0 0
lwrist -15.3585 0 0
lhand -36.9807 29.2264 0.0508144
lfingers 7.12502 -0 0
lthumb -10.0545 58.9178 0.0540953
rclavicle 7.95139e-16 -2.50469e-14 0
rhumerus -40.8773 48.789 -98.2995
rradius 111.415 -0 0
rwrist -78.4918 0 0
rhand 3.59915 -26.3354 0.164124
rfingers 7.12502 -0 0
rthumb 29.0111 -53.8436 0.227915
2961
root -5.62679 13.5045 -29.2565 154.247 -74.0616 -150.289
lfemur -66.8026 36.7983 -7.79169
ltibia 69.9121 -0 0
lfoot -7.30427 -0.0277929 0.0629368
ltoes -36.8976 0 0
rfemur -34.4413 -14.738 24.8449
rtibia 87.0848 -0 0
rfoot -38.2163 -29.8238 0.0332215
rtoes -13.204 0 0
lowerback 16.1386 5.00504 1.2961
upperback -3.99479 7.16931 1.30852
thorax -13.5664 3.27662 -1.25276
lowerneck -2.36971 7.35137 0.221943
upperneck 6.43314 9.62243 2.10703
head 2.5005 4.85633 1.0636
lclavicle 7.95139e-16 -2.50469e-14 0
lhumerus 7.66283 11.4399 82.8013
lradius 89.1585 -0 0
lwrist -14.8979 0 0
lhand -36.6844 29.3089 0.0563691
lfingers 7.12502 -0 0
lthumb -9.76842 59.0088 0.0600085
rclavicle 7.95139e-16 -2.50469e-14 0
rhumerus -38.4685 48.2374 -96.5808
rradius 111.198 -0 0
rwrist -77.9489 0 0
rhand 3.04852 -26.4784 0.182093
rfingers 7.12502 -0 0
rthumb 28.4829 -54.0506 0.252867
2962
root -5.57304 13.5527 -29.3231 152.543 -74.9536 -148.455
lfemur -66.6626 35.8831 -7.95927
ltibia 68.8457 -0 0
lfoot -7.23464 0.364087 0.0686649
ltoes -36.6342 0 0
rfemur -34.4744 -14.3129 25.1301
rtibia 86.5982 -0 0
rfoot -37.8902 -29.7797 0.036244
rtoes -13.1259 0 0
lowerback 16.1242 4.96414 1.28417
upperback -3.93332 7.10631 1.28668
thorax -13.4862 3.24944 -1.24967
lowerneck -2.29206 7.06613 0.025278
upperneck 6.18028 9.24818 2.17213
head 2.40797 4.66952 1.11047
lclavicle 7.95139e-16 -2.50469e-14 0
lhumerus 7.91479 11.0303 82.7777
lradius 88.9438 -0 0
lwrist -14.4372 0 0
lhand -36.388 29.3914 0.0614971
lfingers 7.12502 -0 0
lthumb -9.48236 59.0997 0.0654674
rclavicle 7.95139e-16 -2.50469e-14 0
rhumerus -36.112 47.639 -94.9169
rradius 110.981 -0 0
rwrist -77.4059 0 0
rhand 2.49786 -26.6216 0.198686
rfingers 7.12502 -0 0
rthumb 27.9545 -54.2578 0.275909
2963
root -5.51928 13.6009 -29.3897 150.619 -75.8298 -146.403
lfemur -66.5209 34.9683 -8.12769
ltibia 67.7793 -0 0
lfoot -7.16498 0.755974 0.0739167
ltoes -36.3709 0 0
rfemur -34.5052 -13.8877 25.4145
rtibia 86.1117 -0 0
rfoot -37.5642 -29.7355 0.039015
rtoes -13.0479 0 0
lowerback 16.1098 4.92324 1.27224
upperback -3.87183 7.04333 1.26478
thorax -13.406 3.22225 -1.24661
lowerneck -2.21348 6.78115 -0.171658
upperneck 5.92726 8.87421 2.23883
head 2.31532 4.48279 1.15763
lclavicle 7.95139e-16 -2.50469e-14 0
lhumerus 8.16659 10.6209 82.7524
lradius 88.729 -0 0
lwrist -13.9766 0 0
lhand -36.0917 29.4739 0.0661983
lfingers 7.12502 -0 0
lthumb -9.19629 59.1908 0.0704719
rclavicle 7.95139e-16 -2.50469e-14 0
rhumerus -33.8094 46.9957 -93.3099
rradius 110.764 -0 0
rwrist -76.863 0 0
rhand 1.94715 -26.765 0.213902
rfingers 7.12502 -0 0
rthumb 27.4261 -54.4653 0.297039
2964
root -5.46553 13.649 -29.4563 148.437 -76.6869 -144.092
lfemur -66.3775 34.0538 -8.297
ltibia 66.7129 -0 0
lfoot -7.09527 1.14787 0.0786919
ltoes -36.1075 0 0
rfemur -34.5338 -13.4623 25.6982
rtibia 85.6251 -0 0
rfoot -37.2381 -29.6912 0.0415344
rtoes -12.9698 0 0
lowerback 16.0953 4.88233 1.26033
upperback -3.81033 6.98037 1.24281
thorax -13.3257 3.19507 -1.24359
lowerneck -2.13395 6.49644 -0.368873
upperneck 5.67405 8.50054 2.30713
head 2.22254 4.29613 1.20508
lclavicle 7.95139e-16 -2.50469e-14 0
lhumerus 8.41824 10.2116 82.7252
lradius 88.5143 -0 0
lwrist -13.516 0 0
lhand -35.7953 29.5565 0.0704725
lfingers 7.12502 -0 0
lthumb -8.91022 59.2818 0.0750219
rclavicle 7.95139e-16 -2.50469e-14 0
rhumerus -31.562 46.3098 -91.7612
rradius 110.547 -0 0
rwrist -76.32 0 0
rhand 1.3964 -26.9085 0.22774
rfingers 7.12502 -0 0
rthumb 26.8976 -54.673 0.316255
2965
root -5.41178 13.6972 -29.5229 145.953 -77.521 -141.479
lfemur -66.2324 33.1396 -8.46726
ltibia 65.6465 -0 0
lfoot -7.02554 1.53976 0.0829902
ltoes -35.8441 0 0
rfemur -34.5602 -13.0368 25.9812
rtibia 85.1386 -0 0
rfoot -36.912 -29.647 0.0438021
rtoes -12.8918 0 0
lowerback 16.0809 4.84142 1.24843
upperback -3.74881 6.91744 1.22077
thorax -13.2455 3.16787 -1.2406
lowerneck -2.05349 6.212 -0.566376
upperneck 5.42064 8.12717 2.37704
head 2.12962 4.10955 1.25282
lclavicle 7.95139e-16 -2.50469e-14 0
lhumerus 8.66976 9.80243 82.6963
lradius 88.2995 -0 0
lwrist -13.0554 0 0
lhand -35.499 29.6391 0.0743197
lfingers 7.12502 -0 0
lthumb -8.62413 59.3729 0.0791173
rclavicle 7.95139e-16 -2.50469e-14 0
rhumerus -29.3703 45.5831 -90.2717
rradius 110.33 -0 0
rwrist -75.7771 0 0
rhand 0.845625 -27.0521 0.240197
rfingers 7.12502 -0 0
rthumb 26.3691 -54.8808 0.333555
2966
root -5.35802 13.7454 -29.5894 143.111 -78.3271 -138.509
lfemur -66.0856 32.2258 -8.63852
ltibia 64.5801 -0 0
lfoot -6.95578 1.93167 0.0868114
ltoes -35.5807 0 0
rfemur -34.5844 -12.6112 26.2635
rtibia 84.6521 -0 0
rfoot -36.586 -29.6027 0.045818
rtoes -12.8137 0 0
lowerback 16.0666 4.80051 1.23654
upperback -3.68728 6.85453 1.19867
thorax -13.1653 3.14068 -1.23766
lowerneck -1.97208 5.92784 -0.764177
upperneck 5.16699 7.75412 2.44855
head 2.03657 3.92304 1.30086
lclavicle 7.95139e-16 -2.50469e-14 0
lhumerus 8.9212 9.39338 82.6656
lradius 88.0848 -0 0
lwrist -12.5948 0 0
lhand -35.2026 29.7217 0.0777397
lfingers 7.12502 -0 0
lthumb -8.33805 59.464 0.0827579
rclavicle 7.95139e-16 -2.50469e-14 0
rhumerus -27.2345 44.8179 -88.8419
rradius 110.113 -0 0
rwrist -75.2341 0 0
rhand 0.294816 -27.1958 0.251274
rfingers 7.12502 -0 0
rthumb 25.8405 -55.0887 0.348936
2967
root -5.30427 13.7935 -29.656 139.85 -79.0991 -135.12
lfemur -65.937 31.3124 -8.81084
ltibia 63.5137 -0 0
lfoot -6.886 2.32357 0.0901554
ltoes -35.3174 0 0
rfemur -34.6064 -12.1855 26.5452
rtibia 84.1655 -0 0
rfoot -36.2599 -29.5585 0.047582
rtoes -12.7356 0 0
lowerback 16.0522 4.7596 1.22466
upperback -3.62573 6.79164 1.17651
thorax -13.0851 3.11347 -1.23475
lowerneck -1.88972 5.64397 -0.962284
upperneck 4.9131 7.38137 2.52166
head 1.94338 3.73662 1.34919
lclavicle 7.95139e-16 -2.50469e-14 0
lhumerus 9.17256 8.98446 82.6331
lradius 87.8701 -0 0
lwrist -12.1342 0 0
lhand -34.9062 29.8043 0.0807324
lfingers 7.12502 -0 0
lthumb -8.05195 59.5551 0.0859436
rclavicle 7.95139e-16 -2.50469e-14 0
rhumerus -25.1543 44.0161 -87.4717
rradius 109.896 -0 0
rwrist -74.6912 0 0
rhand -0.256017 -27.3396 0.260969
rfingers 7.12502 -0 0
rthumb 25.3118 -55.2968 0.362399
2968
root -5.25052 13.8417 -29.7226 136.098 -79.8292 -131.24
lfemur -65.7867 30.3994 -8.98427
ltibia 62.4473 -0 0
lfoot -6.81619 2.71549 0.0930219
ltoes -35.054 0 0
rfemur -34.6262 -11.7597 26.8262
rtibia 83.679 -0 0
rfoot -35.9338 -29.5142 0.0490942
rtoes -12.6576 0 0
lowerback 16.0378 4.71868 1.21279
upperback -3.56416 6.72878 1.15427
thorax -13.0049 3.08627 -1.23188
lowerneck -1.80642 5.36037 -1.16071
upperneck 4.65893 7.00896 2.59637
head 1.85006 3.55027 1.39781
lclavicle 7.95139e-16 -2.50469e-14 0
lhumerus 9.42389 8.57569 82.5988
lradius 87.6553 -0 0
lwrist -11.6736 0 0
lhand -34.6099 29.8869 0.0832977
lfingers 7.12502 -0 0
lthumb -7.76586 59.6462 0.0886744
rclavicle 7.95139e-16 -2.50469e-14 0
rhumerus -23.1291 43.1799 -86.1608
rradius 109.679 -0 0
rwrist -74.1482 0 0
rhand -0.806875 -27.4835 0.26928
rfingers 7.12502 -0 0
rthumb 24.7831 -55.505 0.37394
